<svg id="esPHMl02ape1" xmlns="http://www.w3.org/2000/svg" xmlns:xlink="http://www.w3.org/1999/xlink" viewBox="0 0 600 600" shape-rendering="geometricPrecision" text-rendering="geometricPrecision">
    <path id="JR-1" d="M107.30701,107.4838c7.9093,1.58186,14.36513,6.32673,21.92104,8.48556c40.05059,11.44303,89.32128,10.61466,125.86918-11.31408" fill="none" stroke="#3f5787" stroke-width="4"/>

    <path id="JR-2" d="M255.09723,104.65528c16.379922,72.685238,43.42645,276.062306,0,346.493807-10.41756,16.895794,9.929923-18.04428,0,0-20.163811,36.640914-82.729565,18.659731-125.86918,0-43.955888-19.012804-23.704878-114.000902,19.092516-130.819093" fill="none" stroke="#3f5787" stroke-width="4"/>

    <path class="JR-3" d="M129.22805,333.765468c16.90215-22.53619,84.49821-30.051988,111.72657-37.477898c35.48744-9.67839,72.33591-15.61945,107.4838-26.16382c11.82508-3.54752,30.461644-8.317737,41.720684-13.435477c29.0108-13.18673,53.172356-25.375973,81.319976-41.013543c44.28443-24.60247,43.89484-80.1569.70713-106.06953-13.53517-8.12111-33.781399-5.98382-48.791979-8.48558" fill="none" stroke="#3f5787" stroke-width="4"/>

    <path id="JR-4" d="M423.39423,101.11962c-14.54512,0-48.03258,1.6502-55.15616,17.67826-16.5575,37.25437-8.50492,84.64275-4.94991,123.74779c3.78762,41.66373,8.10956,83.50318,11.31408,125.16205c2.65457,34.5094.93103,66.8826,7.77843,101.11962" transform="translate(.000001 0)" fill="none" stroke="#3f5787" stroke-width="4"/>

    <path id="JR-4" d="M369.65233,268.70949c1.24198-7.45187-5.84007-2.354324,0-4.949914c32.20209-14.31204,80.22504-2.997326,106.06953,17.678264c35.28103,28.22482,53.57061,84.09585,60.10607,126.57631c2.92403,19.00616-.95215,39.08134,2.82852,57.98468" fill="none" stroke="#3f5787" stroke-width="4"/>
</svg>
